<svg version="1.1" id="Layer_1" xmlns="http://www.w3.org/2000/svg" xmlns:xlink="http://www.w3.org/1999/xlink" x="0px" y="0px"
	 width="228" height="27" viewBox="0 0 228 27" style="enable-background:new 0 0 228 27;" xml:space="preserve">
<style type="text/css">
	.st0{fill:#231F20;}
</style>
<g>
	<g>
		<polygon class="st0" points="40.7,2.5 37.6,20.3 27.1,20.3 30.2,2.5 		"/>
		<polygon class="st0" points="146.1,2.5 143,20.3 132.5,20.3 135.6,2.5 		"/>
		<path class="st0" d="M11.7,13.5l-0.6,2.8h2.9c2.2,0,2.5-2.8,0.9-2.8H11.7z M12.9,6.8l-0.6,2.8h2.9c2.2,0,2.5-2.8,0.9-2.8H12.9z
			 M22.5,2.5c2.9,0,4.9,1.4,4.6,3.6c-0.4,2.5-1,3.1-2,3.7c-1,0.6-2.4,1.1-2.4,1.1s4.2,0.9,3.1,4.9c-0.8,3.2-3.2,4.5-5.2,4.5H0.2
			L3.3,2.5H22.5z"/>
		<path class="st0" d="M53.2,7.5c0.2-0.8,1.2-0.8,2.1-0.8h11.9l0.8-4.2c0,0-17.2,0.1-19.4,0.1c-1.7,0-3.2,1-4.1,2
			c-0.8,0.9-1.8,1.9-2.7,6.4c0,0-0.4,3.2-0.2,5.2c0.3,3.6,3.6,4.2,4.8,4.2h18.4l1.9-10.7H56.2L55,16.2l-2.2,0c0,0,0,0,0,0
			c-0.7,0.1-1-0.6-1-1.2c0-0.8,0.3-1.9,0.6-3.7C52.6,9.6,52.9,8.4,53.2,7.5"/>
		<path class="st0" d="M94.2,0.3c0,0-6.2-0.2-10,0.2c-3.7,0.4-8.4,2.3-9.6,6.1H90c1.5,0,1.9,1.7,1.7,2.5C91.5,10,90.4,16.5,90,18
			c-0.4,1.6-1.5,2.2-2.5,2.2c-1,0-2.1-0.2-1.7-2.4c0.4-2.2,1.7-8.3,1.7-8.3H73.9c-0.9,3.5-1.9,7.3-1.8,9.6c0.3,5.1,5,7,7.6,7.2
			c2.7,0.3,3.6,0.3,6.1,0.3c2.6,0-2.2,0.3,6-0.2c8.2-0.6,10.6-4.5,11.5-7.6c0.9-3.2,0.8-1.9,1.9-9C106.3,2.7,100.3,0.5,94.2,0.3"/>
		<polygon class="st0" points="134,2.3 110.3,2.3 109.6,6.4 116.5,6.4 114.1,20.3 124.5,20.3 127,6.4 133.3,6.4 		"/>
		<path class="st0" d="M163.7,7.8c-0.2,1.1-1.2,1.6-2.3,1.6h-2.5l0.5-2.9h2.9C163.4,6.5,163.8,6.9,163.7,7.8 M173.5,6.3
			c0.4-3.1-1.3-3.8-3.8-3.8h-9.7h-0.8h-9.7l-3.1,17.8h10.5l1.6-9.4l4.3,9.4h10.1l-4.6-9.1C168.3,11.1,173,10.7,173.5,6.3"/>
		<polygon class="st0" points="197.6,6.5 198.3,2.5 187.7,2.5 187.7,2.5 177.2,2.5 174.1,20.3 183.4,20.3 183.4,20.4 195.1,20.4
			195.8,16.1 185.3,16.1 185.8,12.9 195.3,12.9 195.9,9.2 186.5,9.2 187,6.5 		"/>
		<path class="st0" d="M222.2,6.5l0.7-4h-17.1c-4.7,0-5.7,3.7-5.7,3.7l-0.4,2.6c0,0-0.4,3.4,2.6,3.9c2.3,0.4,5.4,1.1,7.7,1.4
			c1.9,0.3,1.9,1.9-0.2,1.9h-10.4l-0.7,4.4h16.5c1.5,0,3.9-0.2,5.2-1.4c1-1,1.7-1.7,2.1-3.4c0.9-3.9-0.5-5.6-3.1-6.1
			c-2.6-0.5-4-0.8-4-0.8s-4.1-0.7-4.6-0.9c-0.5-0.1-1.1-1.2,0.6-1.2H222.2z"/>
	</g>
	<path class="st0" d="M225.4,17.7v-0.8h0.6c0.3,0,0.6,0,0.6,0.4c0,0.5-0.5,0.4-0.8,0.4H225.4z M226.2,18c0.4,0,0.7-0.2,0.7-0.6
		c0-0.4-0.2-0.6-0.8-0.6h-1V19h0.3v-1h0.5l0.6,1h0.3L226.2,18z M225.9,19.6c-1,0-1.7-0.8-1.7-1.8c0-1,0.7-1.7,1.7-1.7
		c1,0,1.7,0.8,1.7,1.7C227.6,18.9,226.9,19.6,225.9,19.6 M225.9,19.9c1.1,0,2-0.9,2-2c0-1.1-0.9-2-2-2c-1.1,0-2,0.9-2,2
		C223.9,19,224.8,19.9,225.9,19.9"/>
</g>
</svg>
